<svg id="Calque_1" data-name="Calque 1" xmlns="http://www.w3.org/2000/svg" viewBox="0 0 440.57 267.85"><defs><style>.cls-1{font-size:65px;stroke:#fff;stroke-miterlimit:10;font-family:CambriaMath, Cambria Math;letter-spacing:0.17em;}.cls-1,.cls-2{fill:#fff;}.cls-2{font-size:38px;font-family:MyriadPro-Regular, Myriad Pro;letter-spacing:0.22em;}.cls-3{letter-spacing:0.07em;}.cls-4{fill:#1f94d1;letter-spacing:0.07em;}.cls-5{fill:#1d1d1b;font-family:ErasITC-Light, Eras Light ITC;font-weight:300;letter-spacing:0.17em;}.cls-6{fill:#030304;}.cls-7{fill:#717070;}</style></defs><text class="cls-1" transform="translate(284.21 107.2)">&amp;</text><text class="cls-2" transform="translate(9.08 225.28)">ENTERPRISE<tspan class="cls-3" x="274.02" y="0"> </tspan><tspan class="cls-4" x="284.69" y="0" xml:space="preserve">    </tspan><tspan class="cls-5" x="327.4" y="0">SARL</tspan></text><path class="cls-6" d="M196.2,304.8V292.56s-81-20.52-104,59.4c0,0-16.2,60.48,29.16,93.24,0,0,27.72,23,74.88,14.76,0,0,35.73-5.94,37.08-14,.72-4.32,0-67.68,0-67.68s1.08-6.84,10.8-7.56v-2.52l-48.24.36v3.24h10.08s5.17,2,6.84,11.16c.72,4,.36,56.88.36,56.88s-29.88,19.44-68.4,2.16c0,0-31-16.92-33.12-57.6,0,0-4.68-42.12,24.84-69.84C136.44,314.52,159.48,295.08,196.2,304.8Z" transform="translate(-89.35 -290.2)"/><path class="cls-7" d="M216.72,290.2v2.72H225s9.36,0,17.64,18.36l66.6,150.48h7.92L381.6,309.84v32h21.6v-43.2s1.44-7.56,11.52-6.12V290.2H377.28L317.52,430.44,255.6,290.2Z" transform="translate(-89.35 -290.2)"/><path class="cls-7" d="M382,409.2h22v43.56s0,6.12,10.8,5.76v3.24H369.36v-2.88s12.6.72,13-8.64Z" transform="translate(-89.35 -290.2)"/><path class="cls-6" d="M423.36,367.44V380H486v68s2.52,11.16-11.16,10.8v2.88h45.72v-3.24s-13.53,2.35-12.24-10.08c1.08-10.44,0-150.84,0-150.84s-.36-5,12.24-4.32V290.2H474.12v2.36s18,.3,11.52,11.16c-1.08,1.8,0,63,0,63Z" transform="translate(-89.35 -290.2)"/></svg>